<?xml version="1.0" encoding="utf-8"?>
<!-- Generator: Adobe Illustrator 21.0.0, SVG Export Plug-In . SVG Version: 6.00 Build 0)  -->
<svg version="1.1" id="Слой_1" xmlns="http://www.w3.org/2000/svg" xmlns:xlink="http://www.w3.org/1999/xlink" x="0px" y="0px"
	 viewBox="0 0 113.3 103" style="enable-background:new 0 0 113.3 103;" xml:space="preserve">
<style type="text/css">
	.st0{fill-rule:evenodd;clip-rule:evenodd;fill:#FFFFFF;}
	.st1{fill-rule:evenodd;clip-rule:evenodd;fill:#FFFFFF;stroke:#FFFFFF;stroke-width:0.216;stroke-miterlimit:22.9256;}
</style>
<path class="st0" d="M30.8,100.5c-0.6,0.3-1.3,0.5-2.1,0.5c-1.1,0-2-0.4-2.6-1.1c-0.7-0.8-1-1.8-1-3c0-1.3,0.4-2.4,1.1-3.2
	c0.7-0.8,1.7-1.2,2.8-1.2c0.7,0,1.3,0.1,1.8,0.3v1c-0.6-0.3-1.2-0.5-1.8-0.5c-0.9,0-1.6,0.3-2.2,1c-0.6,0.6-0.8,1.5-0.8,2.5
	c0,1,0.3,1.8,0.8,2.4c0.5,0.6,1.2,0.9,2,0.9c0.8,0,1.4-0.2,2-0.6V100.5z"/>
<polygon class="st0" points="34,92.6 34,93.4 33.2,93.4 33.2,100 34,100 34,100.9 31.6,100.9 31.6,100 32.3,100 32.3,93.4 
	31.6,93.4 31.6,92.6 "/>
<polygon class="st0" points="39.9,93.4 37.6,93.4 37.6,100.9 36.7,100.9 36.7,93.4 34.5,93.4 34.5,92.6 39.9,92.6 "/>
<path class="st0" d="M46.1,92.6l-2.6,5.2v3.1h-0.9v-3l-2.5-5.2h1l1.7,3.7c0,0,0.1,0.2,0.2,0.5h0c0-0.1,0.1-0.3,0.2-0.5l1.8-3.7H46.1
	z"/>
<path class="st0" d="M55.7,100.9h-1.1l-1.3-2.3c-0.1-0.2-0.2-0.4-0.3-0.6c-0.1-0.2-0.2-0.3-0.3-0.4c-0.1-0.1-0.2-0.2-0.4-0.2
	c-0.1,0-0.3-0.1-0.5-0.1h-0.7v3.5h-0.9v-8.3h2.3c0.3,0,0.7,0,0.9,0.1c0.3,0.1,0.5,0.2,0.7,0.4c0.2,0.2,0.4,0.4,0.5,0.7
	c0.1,0.3,0.2,0.6,0.2,1c0,0.3,0,0.6-0.1,0.8c-0.1,0.2-0.2,0.5-0.3,0.6c-0.1,0.2-0.3,0.3-0.5,0.5c-0.2,0.1-0.4,0.2-0.7,0.3v0
	c0.1,0.1,0.2,0.1,0.3,0.2c0.1,0.1,0.2,0.2,0.3,0.3c0.1,0.1,0.2,0.2,0.3,0.4c0.1,0.1,0.2,0.3,0.3,0.5L55.7,100.9L55.7,100.9z
	 M51.1,93.4v3h1.2c0.2,0,0.4,0,0.6-0.1c0.2-0.1,0.4-0.2,0.5-0.3c0.1-0.1,0.3-0.3,0.3-0.5c0.1-0.2,0.1-0.4,0.1-0.7
	c0-0.4-0.1-0.8-0.4-1c-0.3-0.2-0.7-0.4-1.2-0.4H51.1z"/>
<polygon class="st0" points="60.9,100.9 56.8,100.9 56.8,92.6 60.7,92.6 60.7,93.4 57.7,93.4 57.7,96.2 60.5,96.2 60.5,97.1 
	57.7,97.1 57.7,100 60.9,100 "/>
<path class="st0" d="M68.6,100.9h-1.1l-4-6.6c-0.1-0.2-0.2-0.3-0.2-0.5h0c0,0.2,0,0.6,0,1.1v6h-0.9v-8.3h1.2l3.9,6.5
	c0.2,0.3,0.3,0.5,0.3,0.6h0c0-0.2-0.1-0.6-0.1-1.2v-5.8h0.9V100.9z"/>
<path class="st0" d="M70.7,100.9v-8.3h2.1c2.7,0,4.1,1.3,4.1,4c0,1.3-0.4,2.3-1.1,3.1c-0.8,0.8-1.8,1.2-3,1.2H70.7L70.7,100.9z
	 M71.6,93.4v6.5h1.2c1,0,1.8-0.3,2.4-0.9c0.6-0.6,0.8-1.4,0.8-2.5c0-2.1-1.1-3.2-3.2-3.2H71.6z"/>
<polygon class="st0" points="82.5,100.9 78.4,100.9 78.4,92.6 82.3,92.6 82.3,93.4 79.3,93.4 79.3,96.2 82.1,96.2 82.1,97.1 
	79.3,97.1 79.3,100 82.5,100 "/>
<path class="st0" d="M89.5,100.9h-1.1l-1.3-2.3c-0.1-0.2-0.2-0.4-0.3-0.6c-0.1-0.2-0.2-0.3-0.3-0.4c-0.1-0.1-0.2-0.2-0.4-0.2
	c-0.1,0-0.3-0.1-0.5-0.1h-0.7v3.5H84v-8.3h2.3c0.3,0,0.6,0,0.9,0.1c0.3,0.1,0.5,0.2,0.7,0.4c0.2,0.2,0.4,0.4,0.5,0.7
	c0.1,0.3,0.2,0.6,0.2,1c0,0.3,0,0.6-0.1,0.8c-0.1,0.2-0.2,0.5-0.3,0.6c-0.1,0.2-0.3,0.3-0.5,0.5c-0.2,0.1-0.4,0.2-0.7,0.3v0
	c0.1,0.1,0.2,0.1,0.3,0.2c0.1,0.1,0.2,0.2,0.3,0.3c0.1,0.1,0.2,0.2,0.3,0.4c0.1,0.1,0.2,0.3,0.3,0.5L89.5,100.9L89.5,100.9z
	 M84.9,93.4v3h1.2c0.2,0,0.4,0,0.6-0.1c0.2-0.1,0.4-0.2,0.5-0.3c0.1-0.1,0.3-0.3,0.3-0.5c0.1-0.2,0.1-0.4,0.1-0.7
	c0-0.4-0.1-0.8-0.4-1c-0.3-0.2-0.7-0.4-1.2-0.4H84.9z"/>
<path class="st1" d="M9.8,40.5C9.8,40.7,9,42.3,7.8,43c-1.3,0.8-2.9,0.4-4.1,2.1c0.8,0.1,1.2,0.1,1.3-0.1c0.1-0.1,0.3-0.2,0.4-0.1
	c0.1,0.2-0.3,0.6-0.7,0.7c-0.5,0.2-1.1,0.5-1.4,0.9C3,47,3,47.6,2.6,48.2C3.5,47.6,4,48,5.3,47.7C6.4,47.4,7.8,44.9,8,45
	c0.3,0.1-0.2,0.5-0.5,1.6c-1.5,5.1-3.7,3.7-4.3,4.7c0.3,0.1,0.5,0.4,0.7,0.4c0.3,0.1,0.6-0.2,0.6,0.1c0.1,0.4-1.1,0.4-1.4,1
	c-0.5,0.9-0.3,1.9-0.7,3c1-1.2,1.7-0.8,3.1-1.7c1.6-1.1,1.5-3,1.8-2.8c0.2,0.1-0.1,2.9-0.1,2.9c-0.1,1.5-1.4,1.6-3.1,1.8
	c-0.6,0-1.4,0.9-1.7,1.5c0.4,0.1,0.9,0.1,1.2,0c0.3-0.1,0.4-0.2,0.5-0.1c0.3,0.3-0.8,0.5-1.2,1.4c-0.5,1-0.4,2.1,0.4,2.9
	c0-1.6,1.1-2.1,2.3-3c1.4-1.1,1.9-1.7,2-2.4c0.1,3.7-1.3,5.8-3,6.1c-0.3,0.1-1-0.2-1.4-0.3c-0.4-0.1-0.8,0.1-0.7,0.4
	c0.1,0.3,0.6-0.1,0.6,0.3c0,0.3-0.6,0.1-1.2,0c-0.7-0.2-1.4,0.4-2.1,1.1c0.4-0.1,0.6-0.1,1,0c0.9,0.3,1.7,0.8,2.9,0.7
	c1.6-0.2,2.6-2.2,2.8-1.7c0.1,0.2-0.3,1.7-1.6,2.5c-0.6,0.4-1.3,0.4-1.9,0.5c-0.6,0.1-1,0.3-1,0.6c0.1,0.6,0.8,0.2,1,0.4
	c0.1,0.3-0.6,0.4-1,1c-0.3,0.7-0.2,1.1,0.2,1.7c0.9-0.9,2-1.5,3-2.2c1.1-0.7,1.1-2,1.4-1.9c0.3,0.1-0.2,0.3-0.4,3.2
	c-0.1,1.6-2.3,1.8-2.6,3.9c0.7-0.3,1.1-0.5,1.1-0.7c0-0.1,0.1-0.4,0.3-0.3c0.2,0.1,0,0.6-0.2,0.9c-0.3,0.4-0.7,0.9-0.8,1.5
	c0,0.5,0.3,1,0.3,1.8c0.4-1,1.1-0.9,2.1-1.9c0.8-0.8,0.7-3.6,1-3.6c0.3,0,0.1,0.6,0.4,1.6c1.3,5.1-1.4,5-1.4,6.2
	c0.3,0,0.6,0.1,0.8-0.1C7.9,78.1,8,77.7,8.2,78c0.3,0.3-0.8,0.9-0.8,1.5c0,1,0.7,1.8,0.9,2.9c0.3-1.5,1.1-1.5,1.8-3.1
	C11,77.6,9.9,76,10.3,76c0.2,0,0.4,0.3,0.5,0.8c0.2,0.6,0.4,0.7,0.9,1.8C12.4,80,12.3,81,11,82c-0.5,0.3-0.8,1.5-0.7,2.2
	c0.4-0.1,0.9-0.4,1-0.6c0.2-0.2,0.3-0.3,0.4-0.3c0.4,0.1-0.4,0.8-0.3,1.8c0.1,1.1,0.7,2,1.8,2.3c-0.8-1.4,0-2.3,0.5-3.8
	c1-2.6-0.9-4.5-0.5-4.5c0.3-0.1,0.5,0.5,1.3,1.2c0.8,0.7,2.6,1.7,3.1,2.8c0.7,1.1,1.8,1.5,2,1.2c0.4-0.4-0.7-1-0.4-1.2
	c0.3-0.3,0.3,0.3,1.1,0.4c0.7,0.1,1.4,0,1.5-0.3c0.1-0.2-0.4-1.4-1-1.6c-0.6-0.2-1.1,0.2-1.2-0.2c-0.1-0.4,1.7-0.2,1.3-1.7
	c-1.4,0.9-3.2,0.6-4.6-0.1c-0.9-0.4-2.4-1.5-2.3-1.7c0.2-0.4,1.1,0.5,2.1,0.5c0.2,0,3,0.3,3.8-1.1c-1.2-1.6-2.2-0.4-2.3-0.9
	c-0.1-0.3,0.7-0.2,0.8-1c-1.5-0.6-2.8,1-4.2,0.9c-1.5-0.2-3.1-2.3-2.9-2.4c0.4-0.2,1.5,1.2,3,0.8c2.2-0.6,3.1-1.6,4-1.1
	c0.1-0.6-0.7-1.5-1.5-1.5c-0.7-0.1-1.1,0.6-1.4,0.4c-0.3-0.3,0.6-0.7,0.4-1c-0.1-0.2-0.5-0.2-0.9-0.1c-0.6,0.2-1.3,0.9-1.7,1
	c-0.6,0.2-2.8,0.1-3.6-3c-0.3-1.2-0.9-2-0.6-2.2c0.4-0.2,0.6,2.2,3.7,2.6c1.1,0.2,2.5-1,3.3-0.5c-0.2-0.8-1.2-1.5-1.9-1.7
	c-0.7-0.2-1.3,0.4-1.4,0.1c-0.2-0.2,0.3-0.4,0.6-0.5c0.2-0.1,0.2-0.3,0.5-0.4c-1.7-1-2.3,1.3-4.2-1.1c-1-1.3-0.9-5-0.4-4.9
	c0.3,0,0.1,2.3,1.7,2.8c0.8,0.2,1.9,0,2.9,0.4c-0.2-0.8-0.5-1.4-1-1.8c-0.5-0.4-1.4-0.3-1.3-0.6c0-0.4,0.9,0.2,1-0.6
	c0.2-0.9-2.1-0.6-2.5-1.6c-0.8-1.7-0.8-4-0.6-4.1c0.4-0.2,0.8,0.9,1.7,1.3c0.2,0.1,2.5,1.7,3.8,0.9c-0.3-2-1.7-1.4-1.6-1.9
	c0-0.4,0.7,0.2,1.2-0.5c-1-1.2-2.9-0.5-4.1-1.3c-1.2-0.9-1.1-4-0.9-4c0.4,0,0.6,1.8,2.1,2.2c2.2,0.6,3.4,0.2,4,1.1
	c0.4-0.4,0.1-1.7-0.5-2.1c-0.6-0.4-1.3,0-1.4-0.4c-0.1-0.4,0.9-0.3,0.8-0.7c0-0.2-0.3-0.4-0.8-0.5c-0.6-0.2-1.6,0.1-2,0
	c-0.7-0.2-2.4-2-1.5-5.1c0.3-1.2,0.2-2.2,0.5-2.2c0.5,0-0.6,2.2,1.9,4c0.8,0.7,2.7,0.4,3.1,1.2c0.3-0.8-0.3-1.9-0.8-2.4
	c-0.5-0.5-1.3-0.3-1.3-0.6c0-0.3,0.5-0.2,0.8-0.2c0.3,0,0.3-0.2,0.7-0.1c-1-1.7-2.7,0-3.1-3c-0.1-0.8,0.9-3,1.9-3.7
	c1.2-1,2.4-3.6,3-6.1C16.1,32,15,32.9,14.2,33c0.1,0.8-0.2,1.3-0.5,1.7c-0.8,1.5-3.9,4.7-5,4.3C8.2,38.9,8,38,7.6,37.8
	c-0.3-0.3-0.8-0.3-0.9,0c-0.1,0.3,0.2,0.5,0,0.8c-0.2,0.2-0.6-0.2-1-0.6c-0.5-0.5-1.5-0.4-2.4-0.1C3.8,38,4,38.2,4.3,38.4
	c0.7,0.7,1,1.6,2.2,2.1C7.9,41.2,9.7,40,9.8,40.5z"/>
<path class="st1" d="M47.2,9.8C47,10,45.2,10,44,9.4c-1.4-0.7-1.8-2.3-3.9-2.5c0.3,0.7,0.5,1,0.7,1c0.1,0,0.4,0.2,0.3,0.3
	c-0.1,0.2-0.7,0-0.9-0.2c-0.4-0.3-0.9-0.7-1.5-0.8c-0.5,0-1,0.3-1.8,0.3c1,0.4,0.9,1.1,1.8,2c0.8,0.9,3.6,0.7,3.7,1
	c0,0.3-0.6,0.1-1.7,0.4c-5.1,1.3-5-1.4-6.2-1.4c0,0.3-0.1,0.6,0,0.8c0.1,0.3,0.5,0.4,0.2,0.6c-0.3,0.3-0.9-0.8-1.5-0.8
	c-1,0-1.8,0.7-2.9,0.9c1.5,0.3,1.6,1.1,3.1,1.8c1.7,0.9,3.4-0.3,3.4,0.1c0,0.2-2.6,1.4-2.6,1.4c-1.4,0.7-2.1-0.4-3.1-1.8
	c-0.3-0.5-1.5-0.7-2.2-0.7c0.1,0.4,0.4,0.9,0.6,1c0.2,0.2,0.4,0.2,0.3,0.4C29.7,13.8,29,13,28,13.1c-1.1,0.1-2,0.7-2.3,1.8
	c1.4-0.8,2.4-0.1,3.8,0.5c1.6,0.7,2.4,0.8,3.1,0.6c-3.1,1.9-5.7,1.7-6.8,0.5c-0.2-0.2-0.3-0.9-0.4-1.3c-0.1-0.3-0.5-0.7-0.7-0.4
	c-0.2,0.2,0.4,0.5,0.1,0.6c-0.3,0.1-0.4-0.4-0.6-1c-0.2-0.7-1.1-1.1-2-1.3c0.3,0.3,0.4,0.5,0.5,0.9c0.2,1,0.1,1.9,0.8,2.9
	c0.9,1.3,3.2,1.2,2.9,1.6c-0.1,0.2-1.6,0.5-3-0.2c-0.7-0.3-1-0.9-1.4-1.4c-0.4-0.5-0.8-0.7-1-0.5c-0.4,0.4,0.3,0.8,0.1,1.1
	c-0.2,0.3-0.6-0.4-1.3-0.3c-0.8,0-1,0.4-1.4,1c1.2,0.3,2.3,1,3.4,1.5c1.2,0.6,2.3,0,2.4,0.3c0,0.3-0.4,0-3,1.3
	c-1.4,0.6-2.7-1.1-4.6-0.3c0.6,0.5,1,0.7,1.1,0.6c0.1,0,0.4-0.1,0.4,0.1c0.1,0.2-0.5,0.3-0.9,0.3c-0.5,0-1.1-0.1-1.7,0.1
	c-0.5,0.2-0.8,0.7-1.4,1.1c1.1-0.1,1.3,0.5,2.6,0.8c1.1,0.4,3.5-1.2,3.7-0.9c0.2,0.3-0.4,0.4-1.2,1.1c-3.8,3.7-5,1.3-6.1,1.9
	c0.2,0.2,0.2,0.6,0.5,0.7c0.2,0.2,0.6,0.1,0.5,0.4c-0.1,0.4-1.2-0.3-1.7,0.1c-0.8,0.5-1.2,1.5-2.1,2.2c1.4-0.5,1.9,0.2,3.6,0
	c2-0.1,2.8-1.9,3-1.6c0.1,0.1-0.1,0.5-0.5,0.9c-0.4,0.4-0.4,0.7-1.1,1.6c-0.9,1.3-1.8,1.7-3.3,1.1c-0.6-0.3-1.6,0.1-2.3,0.5
	c0.3,0.3,0.8,0.5,1,0.6c0.3,0.1,0.4,0.1,0.5,0.2c0.1,0.4-0.9,0-1.7,0.7c-0.9,0.6-1.4,1.7-1.1,2.7c0.8-1.4,2-1.2,3.5-1.5
	c2.7-0.4,3.4-3,3.7-2.7c0.2,0.2-0.2,0.7-0.4,1.7c-0.2,1-0.2,3.1-0.8,4.1c-0.6,1.1-0.4,2.3-0.1,2.4c0.6,0.1,0.5-1.1,0.8-1
	c0.4,0.1-0.1,0.4,0.2,1.1c0.2,0.6,0.7,1.2,1,1.1c0.3,0,1-1,0.9-1.7c-0.1-0.6-0.7-0.9-0.4-1.1c0.3-0.3,1,1.4,2.2,0.3
	c-1.5-0.7-2.1-2.5-2.3-4c-0.1-1,0.1-2.9,0.3-2.8c0.4,0,0.1,1.2,0.6,2.1c0.1,0.2,1.3,2.7,2.8,2.7c0.7-1.9-0.7-2.1-0.4-2.4
	c0.2-0.3,0.5,0.5,1.3,0.2c-0.3-1.6-2.3-1.9-2.9-3.2c-0.6-1.4,0.4-3.8,0.6-3.7c0.4,0.3-0.4,1.9,0.7,3c1.6,1.6,2.9,1.9,2.9,2.9
	c0.5-0.2,1-1.4,0.6-2.1c-0.3-0.6-1.1-0.6-1-1c0.1-0.3,0.9,0.2,1.1-0.2c0.1-0.2-0.1-0.5-0.4-0.9c-0.4-0.5-1.5-0.7-1.7-1
	c-0.5-0.5-1.5-2.4,0.7-4.6c0.9-0.9,1.3-1.8,1.6-1.6c0.4,0.3-1.6,1.6-0.4,4.5c0.4,1,2.1,1.7,2.1,2.6c0.6-0.5,0.8-1.8,0.5-2.5
	c-0.2-0.7-1-0.9-0.8-1.1c0.1-0.3,0.5,0.1,0.8,0.2c0.2,0.1,0.3,0,0.6,0.2c0-2-2.3-1.4-1.2-4.2c0.6-1.5,3.8-3.3,4-2.8
	c0.1,0.3-2,1.2-1.5,2.9c0.2,0.9,1,1.7,1.1,2.7c0.5-0.6,1-1.1,1.1-1.8c0.1-0.6-0.4-1.3-0.1-1.5c0.4-0.2,0.3,0.9,1,0.6
	c0.9-0.3-0.5-2.1,0.1-2.9c1.1-1.5,3.1-2.7,3.3-2.5c0.3,0.2-0.4,1.2-0.3,2.1c0,0.2-0.3,3,1.1,3.8c1.6-1.2,0.4-2.2,0.9-2.3
	c0.3-0.1,0.2,0.7,1,0.8c0.6-1.5-1-2.8-0.9-4.2c0.2-1.5,2.9-2.9,3-2.8c0.2,0.4-1.2,1.5-0.8,3c0.6,2.2,1.5,3.1,1.1,4
	c0.6,0.1,1.5-0.7,1.6-1.5c0.1-0.7-0.7-1.1-0.4-1.4c0.3-0.3,0.7,0.6,1,0.4c0.2-0.1,0.2-0.5,0.1-0.9c-0.2-0.6-0.9-1.3-1-1.7
	c-0.2-0.7,0.6-3.1,3.7-3.9c1.2-0.3,2-0.9,2.2-0.6c0.2,0.4-2.2,0.6-2.5,3.7c-0.2,1,1,2.5,0.5,3.3c0.8-0.2,1.6-1.2,1.7-1.9
	c0.2-0.7-0.4-1.3-0.1-1.4c0.2-0.2,0.4,0.3,0.5,0.6c0.2,0.2,0.3,0.2,0.5,0.5c1-1.7-1.3-2.4,1.1-4.2c0.6-0.5,3-0.7,4.2-0.3
	c1.5,0.6,4.3,0.3,6.7-0.5c-0.9,0-2.2-0.5-2.7-1.1c-0.6,0.5-1.2,0.4-1.7,0.4c-1.7,0-6-1.1-6.3-2.2c-0.1-0.6,0.5-1.2,0.6-1.6
	c0.1-0.4-0.1-0.9-0.5-0.7c-0.3,0.1-0.3,0.4-0.7,0.4c-0.3,0-0.1-0.6,0-1.2c0.2-0.7-0.4-1.5-1.1-2.1c0.1,0.4,0.1,0.6,0,1
	c-0.3,0.9-0.9,1.7-0.7,2.9C45.6,8.5,47.6,9.5,47.2,9.8z"/>
<path class="st1" d="M103.3,77.5c0-0.3,0.8-1.8,2-2.6c1.3-0.9,2.9-0.4,4.1-2.1c-0.8-0.1-1.2-0.1-1.3,0.1c-0.1,0.1-0.3,0.2-0.4,0.1
	c-0.1-0.2,0.3-0.6,0.7-0.7c0.5-0.2,1.1-0.5,1.4-0.9c0.3-0.4,0.3-1,0.7-1.7c-0.9,0.6-1.4,0.2-2.7,0.6c-1.1,0.3-2.5,2.8-2.7,2.7
	c-0.3-0.1,0.2-0.5,0.5-1.6c1.5-5.1,3.7-3.6,4.3-4.7c-0.3-0.1-0.5-0.4-0.7-0.4c-0.3-0.1-0.6,0.2-0.6-0.1c-0.1-0.4,1.1-0.4,1.4-0.9
	c0.5-0.9,0.3-1.9,0.7-3c-1,1.2-1.7,0.8-3.1,1.7c-1.6,1.1-1.5,3-1.8,2.8c-0.2-0.1,0.1-2.9,0.1-2.9c0.1-1.5,1.4-1.6,3.1-1.8
	c0.6,0,1.4-0.9,1.7-1.5c-0.4-0.1-0.9-0.1-1.2,0c-0.3,0.1-0.4,0.2-0.5,0.1c-0.3-0.3,0.8-0.5,1.2-1.4c0.5-1,0.4-2.1-0.4-2.9
	c0,1.6-1.1,2.1-2.3,3c-1.4,1.1-1.9,1.7-2,2.4c-0.1-3.7,1.3-5.8,3-6.1c0.3-0.1,1,0.2,1.4,0.3c0.4,0.1,0.8-0.1,0.7-0.4
	c-0.1-0.3-0.6,0.1-0.6-0.3c0-0.3,0.6-0.1,1.2,0c0.7,0.2,1.5-0.4,2.1-1.1c-0.4,0.1-0.6,0.1-1,0c-0.9-0.3-1.7-0.8-2.9-0.7
	c-1.6,0.2-2.6,2.2-2.8,1.7c-0.1-0.2,0.3-1.7,1.6-2.5c0.6-0.4,1.3-0.4,1.9-0.5c0.6-0.1,1-0.3,1-0.6c-0.1-0.5-0.8-0.2-1-0.4
	c-0.1-0.3,0.6-0.4,1-1c0.4-0.7,0.2-1.1-0.2-1.7c-0.9,0.9-2,1.5-3,2.2c-1.1,0.7-1.1,2-1.5,1.9c-0.3-0.1,0.2-0.3,0.4-3.2
	c0.1-1.5,2.3-1.8,2.6-3.9c-0.7,0.3-1.1,0.5-1.1,0.7c0,0.1-0.1,0.4-0.3,0.3c-0.2-0.1,0-0.6,0.2-0.9c0.3-0.4,0.7-0.9,0.8-1.5
	c0-0.5-0.3-1-0.3-1.8c-0.4,1-1.1,0.9-2.1,1.9c-0.9,0.8-0.7,3.6-1,3.6c-0.3,0-0.1-0.6-0.4-1.6c-1.3-5.1,1.4-5,1.4-6.2
	c-0.3,0.1-0.6-0.1-0.8,0.1c-0.3,0.1-0.4,0.5-0.6,0.2c-0.3-0.3,0.8-0.9,0.8-1.5c-0.1-1-0.7-1.8-0.9-2.9c-0.3,1.5-1.1,1.5-1.8,3.1
	c-0.9,1.7,0.3,3.4-0.1,3.4c-0.2,0-0.4-0.3-0.5-0.8c-0.2-0.6-0.4-0.7-0.9-1.8c-0.7-1.4-0.6-2.4,0.7-3.4c0.5-0.3,0.8-1.5,0.7-2.2
	c-0.4,0.2-0.9,0.4-1,0.6c-0.2,0.2-0.3,0.3-0.4,0.3c-0.4-0.1,0.4-0.8,0.3-1.8c-0.1-1.1-0.7-2.1-1.8-2.3c0.8,1.4,0.1,2.3-0.5,3.8
	c-1,2.6,0.9,4.4,0.5,4.5c-0.3,0.1-0.5-0.5-1.3-1.2c-0.8-0.7-2.6-1.7-3.1-2.8c-0.7-1.1-1.8-1.5-2-1.2c-0.4,0.4,0.7,1,0.4,1.2
	c-0.3,0.3-0.3-0.3-1-0.4c-0.7-0.1-1.4,0-1.5,0.3c-0.1,0.2,0.4,1.4,1,1.6c0.6,0.2,1.1-0.2,1.2,0.2c0.1,0.4-1.7,0.2-1.3,1.7
	c1.4-0.9,3.2-0.6,4.6,0.1c0.9,0.4,2.4,1.5,2.3,1.7c-0.2,0.4-1.1-0.5-2.1-0.5c-0.2,0-3-0.3-3.8,1.1c1.2,1.6,2.2,0.4,2.3,0.9
	c0.1,0.3-0.7,0.2-0.8,1c1.5,0.6,2.8-1,4.2-0.9c1.5,0.2,3.1,2.3,2.9,2.4c-0.4,0.2-1.5-1.2-3-0.8c-2.2,0.6-3.1,1.6-4,1.1
	c-0.1,0.6,0.7,1.5,1.5,1.6c0.7,0.1,1.1-0.7,1.4-0.4c0.3,0.3-0.6,0.7-0.4,1c0.1,0.2,0.5,0.2,0.9,0.1c0.6-0.2,1.3-0.9,1.7-1
	c0.6-0.2,2.8-0.1,3.6,3c0.3,1.2,0.9,2,0.6,2.2c-0.4,0.2-0.6-2.2-3.7-2.6c-1-0.2-2.5,1-3.2,0.5c0.2,0.8,1.2,1.5,1.9,1.7
	c0.7,0.2,1.3-0.4,1.4-0.1c0.2,0.2-0.3,0.4-0.6,0.5c-0.2,0.1-0.2,0.3-0.5,0.4c1.7,1,2.3-1.3,4.2,1.1c1,1.3,0.9,5,0.4,4.9
	c-0.3,0-0.1-2.3-1.7-2.8c-0.8-0.2-1.9,0-2.9-0.4c0.2,0.8,0.5,1.4,1,1.8c0.5,0.4,1.4,0.3,1.3,0.6c0,0.4-0.9-0.2-1,0.6
	c-0.2,0.9,2.1,0.6,2.5,1.6c0.8,1.7,0.8,4,0.5,4.2c-0.3,0.2-0.8-0.9-1.7-1.4c-0.2-0.1-2.5-1.7-3.8-0.9c0.3,2,1.7,1.4,1.6,1.9
	c0,0.4-0.7-0.2-1.2,0.5c1,1.2,2.9,0.5,4.1,1.3c1.2,0.9,1.1,4,0.9,4c-0.4,0-0.6-1.8-2.1-2.2c-2.2-0.6-3.4-0.2-4-1.1
	c-0.4,0.5-0.1,1.7,0.5,2.1c0.6,0.4,1.3,0,1.4,0.3c0.1,0.3-0.9,0.3-0.8,0.7c0,0.2,0.3,0.4,0.8,0.5c0.6,0.2,1.6-0.1,2,0
	c0.7,0.2,2.4,2,1.5,5.1c-0.3,1.2-0.2,2.2-0.5,2.2c-0.5,0,0.6-2.2-1.9-4c-0.8-0.7-2.7-0.4-3.1-1.2c-0.2,0.8,0.3,1.9,0.8,2.4
	c0.5,0.5,1.3,0.3,1.3,0.6c0,0.3-0.5,0.2-0.8,0.2c-0.3,0-0.3,0.2-0.7,0.1c1,1.7,2.7,0,3.1,3c0.1,0.8-0.9,3-1.9,3.7
	c-1.2,1-2.4,3.6-3,6.1c0.4-0.8,1.5-1.7,2.3-1.8c-0.1-0.8,0.2-1.3,0.5-1.7c0.8-1.5,3.9-4.7,5-4.3c0.6,0.2,0.8,1.1,1.1,1.3
	c0.3,0.2,0.8,0.3,0.9,0c0.1-0.3-0.2-0.5,0-0.8c0.2-0.2,0.6,0.2,1,0.6c0.5,0.5,1.4,0.4,2.4,0.1c-0.4-0.1-0.6-0.2-0.9-0.5
	c-0.7-0.7-1-1.6-2.2-2.1C105.2,76.8,103.4,78,103.3,77.5z"/>
<path class="st1" d="M94.8,27.4c-0.3-0.1-1.2-1.6-1.3-3c-0.1-1.5,1.1-2.7,0.3-4.6c-0.5,0.6-0.6,1-0.5,1.1c0,0.1,0.1,0.4-0.1,0.4
	c-0.2,0-0.3-0.5-0.3-0.9c0-0.5,0.1-1.2-0.1-1.7c-0.2-0.5-0.7-0.8-1.1-1.4c0.1,1.1-0.5,1.3-0.9,2.6c-0.3,1.1,1.2,3.5,1,3.7
	c-0.3,0.2-0.4-0.4-1.2-1.2c-3.7-3.8-1.3-5-1.9-6.1c-0.2,0.2-0.6,0.2-0.7,0.4c-0.2,0.2-0.1,0.7-0.4,0.5c-0.4-0.1,0.3-1.2-0.1-1.7
	c-0.5-0.8-1.5-1.2-2.2-2.1c0.5,1.4-0.2,1.9,0,3.6c0.1,2,1.9,2.8,1.6,3c-0.2,0.1-2.5-1.5-2.5-1.5c-1.3-0.9-0.7-2.1,0-3.6
	c0.3-0.5-0.1-1.6-0.5-2.2c-0.3,0.3-0.5,0.8-0.6,1c-0.1,0.3,0,0.4-0.2,0.5c-0.4,0.1,0-0.9-0.7-1.7c-0.6-0.9-1.7-1.4-2.7-1.1
	c1.4,0.8,1.3,2,1.5,3.6c0.2,1.7,0.5,2.5,1.1,2.9c-3.2-1.8-4.3-4-3.8-5.6c0.1-0.3,0.7-0.7,0.9-1c0.3-0.3,0.3-0.8,0-0.9
	c-0.3-0.1-0.2,0.6-0.5,0.4c-0.2-0.2,0.2-0.5,0.6-1c0.5-0.5,0.4-1.4,0.1-2.4c-0.1,0.4-0.3,0.6-0.5,0.9c-0.7,0.7-1.5,1-2.1,2.2
	c-0.6,1.4,0.6,3.3,0.1,3.3c-0.2,0-1.3-1.1-1.3-2.7c-0.1-0.7,0.3-1.4,0.5-1.9c0.2-0.5,0.2-1-0.1-1.1c-0.5-0.2-0.6,0.7-0.9,0.6
	c-0.3,0,0-0.7-0.4-1.3c-0.4-0.7-0.8-0.7-1.6-0.7c0.3,1.2,0.3,2.5,0.4,3.7c0.1,1.3,1.2,2,0.9,2.2c-0.3,0.2-0.2-0.3-2.6-1.9
	c-1.3-0.9-0.4-2.9-2.1-4.1c-0.1,0.8-0.1,1.2,0.1,1.3C70,7.7,70.2,7.9,70,8c-0.2,0.2-0.6-0.3-0.7-0.7c-0.2-0.5-0.4-1.1-0.9-1.4
	c-0.5-0.3-1-0.3-1.7-0.6C67.4,6.2,67,6.7,67.3,8c0.3,1.1,2.8,2.4,2.6,2.7c-0.1,0.3-0.5-0.2-1.6-0.5c-5.1-1.4-3.7-3.7-4.7-4.3
	c-0.1,0.3-0.4,0.5-0.4,0.8c-0.1,0.3,0.2,0.6-0.1,0.6c-0.4,0.1-0.4-1.1-0.9-1.4c-0.9-0.5-1.9-0.3-3-0.7c1.2,1,0.8,1.7,1.7,3.1
	c1.1,1.7,3,1.5,2.8,1.8c-0.1,0.2-0.5,0.2-1,0c-0.6-0.1-0.8,0-2-0.1c-1.5-0.1-2.4-0.7-2.6-2.3c0-0.6-0.9-1.4-1.5-1.7
	c-0.1,0.5-0.1,0.9,0,1.2c0.1,0.3,0.2,0.4,0.1,0.5c-0.3,0.3-0.4-0.8-1.4-1.2c-1-0.5-2.1-0.4-2.9,0.4c1.6,0,2,1.1,3,2.3
	c1.7,2.2,4.3,1.5,4.2,1.8c-0.1,0.3-0.7,0.2-1.7,0.5c-1,0.3-2.8,1.4-4,1.3c-1.3,0-2.2,0.8-2.1,1.1c0.2,0.5,1.2-0.1,1.2,0.2
	c0.1,0.4-0.4,0.2-0.9,0.7c-0.4,0.5-0.6,1.2-0.5,1.4c0.2,0.2,1.4,0.3,1.9-0.1c0.5-0.4,0.4-1.1,0.8-0.9c0.4,0.2-0.7,1.6,0.8,2
	c-0.1-1.6,1.1-3.1,2.4-4c0.8-0.6,2.6-1.3,2.6-1.1c0.2,0.3-1,0.7-1.5,1.6c-0.1,0.2-1.7,2.5-0.9,3.8c2-0.3,1.4-1.7,1.9-1.6
	c0.4,0-0.2,0.7,0.5,1.2c1.3-1,0.5-2.9,1.3-4.1c0.9-1.2,3.5-1.5,3.5-1.3c-0.1,0.4-1.8,0.6-2.2,2.1c-0.6,2.2-0.2,3.4-1.1,4
	c0.4,0.4,1.7,0.1,2.1-0.5c0.4-0.6,0-1.3,0.3-1.4c0.4-0.1,0.3,0.9,0.7,0.8c0.2,0,0.4-0.3,0.5-0.8c0.2-0.6-0.1-1.6,0-2
	c0.2-0.7,1.3-2.5,4.4-1.7c1.2,0.3,2.2,0.2,2.2,0.5c0,0.5-2.2-0.6-4.1,1.9c-0.7,0.8-0.4,2.7-1.2,3.1c0.8,0.3,1.9-0.3,2.4-0.8
	c0.5-0.5,0.3-1.3,0.6-1.3c0.3,0,0.1,0.5,0.2,0.8c0,0.3,0.2,0.3,0.1,0.7c1.7-1,0-2.7,3-3.1c1.6-0.3,4.8,1.7,4.5,2.1
	c-0.2,0.2-2-1.1-3.2,0.1c-0.6,0.6-1,1.7-1.7,2.3c0.8,0.2,1.5,0.3,2.1,0.1c0.6-0.2,1-1,1.2-0.8c0.3,0.2-0.6,0.7,0,1.2
	c0.7,0.6,1.5-1.5,2.6-1.4c1.8,0.2,3.9,1.4,3.9,1.6c0,0.4-1.2,0.3-2,0.8c-0.2,0.1-2.7,1.3-2.7,2.8c1.9,0.7,2.1-0.7,2.4-0.4
	c0.3,0.2-0.5,0.5-0.2,1.3c1.6-0.3,1.9-2.3,3.2-2.9c1.4-0.6,4,1,3.9,1.2c-0.3,0.3-1.9-0.4-3,0.7c-1.6,1.6-1.9,2.9-2.9,2.9
	c0.2,0.5,1.4,1,2.1,0.6c0.7-0.3,0.7-1.1,1-1c0.4,0.1-0.2,0.9,0.2,1.1c0.2,0.1,0.5-0.1,0.8-0.4c0.5-0.5,0.7-1.5,1-1.7
	c0.5-0.5,2.9-1,5.2,1.3c0.9,0.9,1.8,1.3,1.6,1.6c-0.2,0.4-1.6-1.6-4.5-0.4c-1,0.4-1.7,2.1-2.6,2.1c0.5,0.6,1.8,0.7,2.5,0.5
	c0.7-0.2,0.9-1,1.1-0.8c0.3,0.1-0.1,0.5-0.2,0.8c-0.1,0.3,0,0.4-0.2,0.7c2,0,1.4-2.3,4.2-1.2c0.7,0.3,2.1,2.3,2.3,3.5
	c0.3,1.5,1.9,3.9,3.8,5.6c-0.5-0.8-0.7-2.2-0.4-3c-0.8-0.3-1-0.8-1.2-1.3c-0.9-1.4-2.1-5.7-1.3-6.5c0.5-0.4,1.4-0.1,1.7-0.3
	c0.4-0.1,0.7-0.5,0.4-0.8c-0.2-0.2-0.6-0.1-0.7-0.4c-0.1-0.3,0.4-0.4,1-0.6c0.7-0.2,1.1-1.1,1.3-2c-0.3,0.3-0.5,0.4-0.9,0.5
	c-1,0.2-1.9,0.1-2.9,0.8C95.2,25.4,95.3,27.6,94.8,27.4z"/>
<path class="st0" d="M39,77.7c-2.4,0-4.6-0.5-6.7-1.4c-2.1-0.9-3.9-2.3-5.5-4c-1.5-1.7-2.7-3.8-3.6-6.3c-0.9-2.5-1.3-5.3-1.3-8.3
	c0-3,0.4-5.8,1.3-8.3c0.9-2.5,2.1-4.8,3.7-6.6c1.6-1.8,3.5-3.3,5.7-4.3c2.2-1,4.6-1.5,7.1-1.5c1.8,0,3.5,0.3,5,0.8
	c1.5,0.5,2.8,1.1,3.8,1.8l1.4-1.5h2L52,52.1h-2c-1.1-4.3-2.5-7.5-4.1-9.5c-1.6-2-3.6-3-5.9-3c-2.9,0-5.1,1.5-6.6,4.5
	c-1.5,3-2.3,7.2-2.3,12.7c0,3.1,0.3,5.7,0.8,7.9c0.5,2.2,1.2,3.9,2,5.3c0.9,1.4,1.9,2.4,3.2,3.1c1.2,0.6,2.6,1,4,1
	c2.1,0,4.1-0.7,5.7-2.1c1.7-1.4,3.2-3.5,4.6-6.3l2,1.4c-0.7,1.6-1.4,3-2.3,4.3c-0.8,1.3-1.8,2.4-2.9,3.3c-1.2,1-2.6,1.8-4,2.3
	C42.7,77.5,40.9,77.7,39,77.7z"/>
<path class="st0" d="M93.1,76.7H80.6c-2.2-3.9-4-7-5.4-9.4c-1.4-2.3-3.2-5-5.4-8.1h-1.3V71c0,0.7,0.1,1.2,0.3,1.7
	c0.2,0.5,0.6,0.8,1.2,1.1c0.3,0.1,0.8,0.3,1.4,0.4c0.6,0.2,1.2,0.3,1.6,0.3v2.1H55.5v-2.1c0.4-0.1,1-0.1,1.8-0.2
	c0.7-0.1,1.3-0.2,1.6-0.4c0.6-0.3,1-0.7,1.2-1.1c0.2-0.4,0.3-1,0.3-1.7V43.8c0-0.7-0.1-1.2-0.3-1.6c-0.2-0.4-0.6-0.8-1.2-1.1
	c-0.5-0.2-1.1-0.4-1.7-0.6c-0.7-0.2-1.2-0.3-1.6-0.4V38h18.4c4.1,0,7.2,0.8,9.4,2.3c2.1,1.5,3.2,3.8,3.2,6.9c0,2.7-0.7,4.9-2,6.5
	c-1.3,1.6-3.3,2.9-6,3.9c1,1.6,2.3,3.5,3.7,5.6c1.4,2.1,2.8,4.3,4.3,6.5c0.5,0.7,1.1,1.6,2,2.6c0.8,1,1.5,1.7,2.2,1.9
	c0.4,0.1,0.8,0.2,1.3,0.3c0.5,0.1,0.9,0.1,1.2,0.2V76.7L93.1,76.7z M77.5,47.9c0-2.6-0.6-4.5-1.8-5.7c-1.2-1.2-3-1.8-5.3-1.8h-1.8
	v16.2h1.8c2.3,0,4-0.7,5.3-2.1C76.8,53.2,77.5,51,77.5,47.9z"/>
</svg>
