<?xml version="1.0" encoding="iso-8859-1"?>
<!-- Generator: Adobe Illustrator 19.0.0, SVG Export Plug-In . SVG Version: 6.00 Build 0)  -->
<svg version="1.1" id="Capa_1" xmlns="http://www.w3.org/2000/svg" xmlns:xlink="http://www.w3.org/1999/xlink" x="0px" y="0px"
	 viewBox="0 0 512 512" style="enable-background:new 0 0 512 512;" xml:space="preserve">
<g>
	<g>
		<rect x="240" y="424.5" width="16" height="15"/>
	</g>
</g>
<g>
	<g>
		<path d="M176,145v15h136v25h15v-25h17v41h15v-41h33v49H119v-49h25v-15h-40v79h32v288h239V384h-15v17h-81v-33h89v-15h-25v-33h17v16
			h15V224h32v-79H176z M231,224h81v33h-81V224z M280,272v33h-81v-33H280z M151,224h65v33h-65V224z M151,272h33v33h-33V272z M151,320
			h81v33h-81V320z M264,368v33h-81v-33H264z M151,368h17v33h-17V368z M151,416h49v33h-49V416z M216,497h-65v-33h65V497z M328,497
			h-97v-33h97V497z M360,497h-17v-33h17V497z M311,416h49v33h-49V416z M296,416v33h-81v-33H296z M328,353h-81v-33h81V353z M360,305
			h-65v-33h65V305z M360,257h-33v-33h33V257z"/>
	</g>
</g>
<g>
	<g>
		<path d="M151.5,0h-15c0,13.509-10.99,24.5-24.5,24.5v15c13.51,0,24.5,10.991,24.5,24.5h15c0-13.509,10.99-24.5,24.5-24.5v-15
			C162.49,24.5,151.5,13.509,151.5,0z M144,40.884c-2.471-3.412-5.472-6.413-8.884-8.884c3.412-2.471,6.413-5.472,8.884-8.884
			c2.471,3.412,5.472,6.413,8.884,8.884C149.472,34.471,146.471,37.472,144,40.884z"/>
	</g>
</g>
<g>
	<g>
		<path d="M368,8.5c-12.958,0-23.5,10.542-23.5,23.5s10.542,23.5,23.5,23.5s23.5-10.542,23.5-23.5S380.958,8.5,368,8.5z M368,40.5
			c-4.686,0-8.5-3.813-8.5-8.5s3.814-8.5,8.5-8.5c4.686,0,8.5,3.813,8.5,8.5S372.686,40.5,368,40.5z"/>
	</g>
</g>
<g>
	<g>
		<path d="M311.5,48h-15c0,13.509-10.99,24.5-24.5,24.5v15c13.51,0,24.5,10.991,24.5,24.5h15c0-13.509,10.99-24.5,24.5-24.5v-15
			C322.49,72.5,311.5,61.509,311.5,48z M304,88.884c-2.471-3.412-5.472-6.413-8.884-8.884c3.412-2.471,6.413-5.472,8.884-8.884
			c2.471,3.412,5.472,6.413,8.884,8.884C309.472,82.471,306.471,85.472,304,88.884z"/>
	</g>
</g>
<g>
	<g>
		<path d="M208,88.5c-12.958,0-23.5,10.542-23.5,23.5s10.542,23.5,23.5,23.5s23.5-10.542,23.5-23.5S220.958,88.5,208,88.5z
			 M208,120.5c-4.686,0-8.5-3.813-8.5-8.5s3.814-8.5,8.5-8.5c4.686,0,8.5,3.813,8.5,8.5S212.686,120.5,208,120.5z"/>
	</g>
</g>
<g>
	<g>
		<rect x="112" y="89" width="16" height="15"/>
	</g>
</g>
<g>
	<g>
		<rect x="48" y="169" width="16" height="15"/>
	</g>
</g>
<g>
	<g>
		<rect x="448" y="137" width="16" height="15"/>
	</g>
</g>
<g>
	<g>
		<rect x="368" y="105" width="16" height="15"/>
	</g>
</g>
<g>
	<g>
		<rect x="224" y="41" width="16" height="15"/>
	</g>
</g>
<g>
	<g>
		<rect x="320" y="280.5" width="16" height="15"/>
	</g>
</g>
<g>
	<g>
		<rect x="304" y="472.5" width="16" height="15"/>
	</g>
</g>
<g>
	<g>
		<rect x="192" y="232.5" width="16" height="15"/>
	</g>
</g>
<g>
</g>
<g>
</g>
<g>
</g>
<g>
</g>
<g>
</g>
<g>
</g>
<g>
</g>
<g>
</g>
<g>
</g>
<g>
</g>
<g>
</g>
<g>
</g>
<g>
</g>
<g>
</g>
<g>
</g>
</svg>
