<?xml version="1.0" encoding="utf-8"?>
<!-- Generator: Adobe Illustrator 16.0.0, SVG Export Plug-In . SVG Version: 6.00 Build 0)  -->
<!DOCTYPE svg PUBLIC "-//W3C//DTD SVG 1.1//EN" "http://www.w3.org/Graphics/SVG/1.1/DTD/svg11.dtd">
<svg version="1.1" id="Capa_1" xmlns="http://www.w3.org/2000/svg" xmlns:xlink="http://www.w3.org/1999/xlink" x="0px" y="0px"
	 width="512px" height="512px" viewBox="0 0 512 512" enable-background="new 0 0 512 512" xml:space="preserve">
<g>
	<path d="M256,0C114.609,0,0,114.609,0,256c0,141.391,114.609,256,256,256c141.391,0,256-114.609,256-256
		C512,114.609,397.391,0,256,0z M256,472c-119.297,0-216-96.703-216-216S136.703,40,256,40s216,96.703,216,216S375.297,472,256,472z
		"/>
	<g id="XMLID_496_">
		<path id="XMLID_497_" d="M71.93,265.15l75.513,28.184l29.228,93.997c1.87,6.021,9.232,8.246,14.118,4.251l42.092-34.314
			c4.413-3.596,10.697-3.773,15.308-0.427l75.919,55.118c5.227,3.8,12.633,0.936,13.943-5.381l55.615-267.517
			c1.431-6.899-5.349-12.655-11.918-10.114L71.841,248.499C64.193,251.449,64.26,262.276,71.93,265.15z M171.96,278.332
			l147.58-90.896c2.652-1.629,5.381,1.958,3.104,4.07L200.847,304.723c-4.281,3.985-7.042,9.318-7.825,15.106l-4.149,30.746
			c-0.549,4.105-6.316,4.513-7.449,0.54l-15.957-56.067C163.64,288.653,166.304,281.822,171.96,278.332z"/>
	</g>
</g>
</svg>
