<?xml version="1.0" encoding="utf-8"?>
<!-- Generator: Adobe Illustrator 16.0.0, SVG Export Plug-In . SVG Version: 6.00 Build 0)  -->
<!DOCTYPE svg PUBLIC "-//W3C//DTD SVG 1.1//EN" "http://www.w3.org/Graphics/SVG/1.1/DTD/svg11.dtd">
<svg version="1.1" id="Capa_1" xmlns="http://www.w3.org/2000/svg" xmlns:xlink="http://www.w3.org/1999/xlink" x="0px" y="0px"
	 width="512px" height="512px" viewBox="0 0 512 512" enable-background="new 0 0 512 512" xml:space="preserve">
<g>
	<path d="M256.266,0c-141.392,0-256,114.608-256,256c0,141.391,114.608,256,256,256c141.391,0,256-114.609,256-256
		C512.266,114.608,397.656,0,256.266,0z M256.266,472c-119.297,0-216-96.703-216-216s96.703-216,216-216s216,96.703,216,216
		S375.563,472,256.266,472z"/>
	<g>
		<path d="M319.23,115.469H193.295c-42.767,0-77.561,34.796-77.561,77.563v125.938c0,42.768,34.794,77.562,77.561,77.562H319.23
			c42.771,0,77.565-34.795,77.565-77.562V193.031C396.798,150.265,362.002,115.469,319.23,115.469z M371.86,318.969
			c0,29.017-23.609,52.624-52.626,52.624H193.295c-29.016,0.002-52.623-23.607-52.623-52.624V193.031
			c0-29.016,23.607-52.625,52.623-52.625H319.23c29.02,0,52.628,23.609,52.628,52.625v125.938H371.86z"/>
		<path d="M256.265,183.58c-39.934,0-72.422,32.488-72.422,72.424c0,39.932,32.488,72.418,72.422,72.418
			c39.935,0,72.423-32.486,72.423-72.418C328.688,216.068,296.199,183.58,256.265,183.58z M256.265,303.483
			c-26.181,0-47.484-21.299-47.484-47.481c0-26.184,21.3-47.486,47.484-47.486c26.184,0,47.486,21.303,47.486,47.486
			C303.751,282.185,282.447,303.483,256.265,303.483z"/>
		<path d="M331.726,162.436c-4.804,0-9.525,1.945-12.919,5.353c-3.409,3.392-5.368,8.113-5.368,12.935
			c0,4.806,1.961,9.525,5.368,12.935c3.392,3.391,8.115,5.354,12.919,5.354c4.82,0,9.525-1.963,12.935-5.354
			c3.407-3.409,5.353-8.13,5.353-12.935c0-4.821-1.945-9.543-5.353-12.935C341.269,164.381,336.546,162.436,331.726,162.436z"/>
	</g>
</g>
</svg>
